<svg width="125" height="86" viewBox="0 0 125 86" fill="none" xmlns="http://www.w3.org/2000/svg">
    <rect width="78" height="86" fill="#F8FAFC"/>
    <path d="M11.875 41V11.9091H24.4886C26.7045 11.9091 28.5653 12.2074 30.071 12.804C31.5862 13.4006 32.7273 14.2434 33.4943 15.3324C34.2708 16.4214 34.6591 17.7045 34.6591 19.1818C34.6591 20.2519 34.4223 21.2273 33.9489 22.108C33.4848 22.9886 32.8314 23.7273 31.9886 24.3239C31.1458 24.911 30.161 25.3182 29.0341 25.5455V25.8295C30.2841 25.8769 31.4205 26.1941 32.4432 26.7812C33.4659 27.3589 34.2803 28.1591 34.8864 29.1818C35.4924 30.1951 35.7955 31.3883 35.7955 32.7614C35.7955 34.3523 35.3788 35.768 34.5455 37.0085C33.7216 38.2491 32.5473 39.2244 31.0227 39.9347C29.4981 40.6449 27.6799 41 25.5682 41H11.875ZM19.7727 34.6932H23.4659C24.7917 34.6932 25.786 34.447 26.4489 33.9545C27.1117 33.4527 27.4432 32.714 27.4432 31.7386C27.4432 31.0568 27.2869 30.4792 26.9744 30.0057C26.6619 29.5322 26.2169 29.1723 25.6392 28.9261C25.071 28.6799 24.3845 28.5568 23.5795 28.5568H19.7727V34.6932ZM19.7727 23.6705H23.0114C23.7027 23.6705 24.3134 23.5616 24.8438 23.3438C25.3741 23.1259 25.786 22.8134 26.0795 22.4062C26.3826 21.9896 26.5341 21.483 26.5341 20.8864C26.5341 19.9867 26.2121 19.3002 25.5682 18.8267C24.9242 18.3438 24.1098 18.1023 23.125 18.1023H19.7727V23.6705ZM62.429 11.9091V41H54.5312V11.9091H62.429ZM23.0682 73H11.875V43.9091H22.9545C25.947 43.9091 28.5322 44.4915 30.7102 45.6562C32.8977 46.8116 34.5833 48.4782 35.767 50.6562C36.9602 52.8248 37.5568 55.4242 37.5568 58.4545C37.5568 61.4848 36.965 64.089 35.7812 66.267C34.5975 68.4356 32.9214 70.1023 30.7528 71.267C28.5843 72.4223 26.0227 73 23.0682 73ZM19.7727 66.2955H22.7841C24.2235 66.2955 25.4498 66.0634 26.4631 65.5994C27.4858 65.1354 28.2623 64.3352 28.7926 63.1989C29.3324 62.0625 29.6023 60.4811 29.6023 58.4545C29.6023 56.428 29.3277 54.8466 28.7784 53.7102C28.2386 52.5739 27.4432 51.7737 26.392 51.3097C25.3504 50.8456 24.072 50.6136 22.5568 50.6136H19.7727V66.2955ZM41.3246 73V68.625L55.0746 50.2727H41.3814V43.9091H65.1314V48.2841L51.3814 66.6364H65.0746V73H41.3246Z" fill="#1D4ED8"/>
</svg>
