<svg width="93" height="30" viewBox="0 0 93 30" fill="none" xmlns="http://www.w3.org/2000/svg">
<path d="M0.875 29.5V0.40909H13.4886C15.7045 0.40909 17.5653 0.707386 19.071 1.30398C20.5862 1.90057 21.7273 2.74337 22.4943 3.83239C23.2708 4.9214 23.6591 6.20454 23.6591 7.68182C23.6591 8.75189 23.4223 9.72727 22.9489 10.608C22.4848 11.4886 21.8314 12.2273 20.9886 12.8239C20.1458 13.411 19.161 13.8182 18.0341 14.0455V14.3295C19.2841 14.3769 20.4205 14.6941 21.4432 15.2812C22.4659 15.8589 23.2803 16.6591 23.8864 17.6818C24.4924 18.6951 24.7955 19.8883 24.7955 21.2614C24.7955 22.8523 24.3788 24.268 23.5455 25.5085C22.7216 26.7491 21.5473 27.7244 20.0227 28.4347C18.4981 29.1449 16.6799 29.5 14.5682 29.5H0.875ZM8.77273 23.1932H12.4659C13.7917 23.1932 14.786 22.947 15.4489 22.4545C16.1117 21.9527 16.4432 21.214 16.4432 20.2386C16.4432 19.5568 16.2869 18.9792 15.9744 18.5057C15.6619 18.0322 15.2169 17.6723 14.6392 17.4261C14.071 17.1799 13.3845 17.0568 12.5795 17.0568H8.77273V23.1932ZM8.77273 12.1705H12.0114C12.7027 12.1705 13.3134 12.0616 13.8438 11.8438C14.3741 11.6259 14.786 11.3134 15.0795 10.9062C15.3826 10.4896 15.5341 9.98295 15.5341 9.38636C15.5341 8.48674 15.2121 7.80019 14.5682 7.3267C13.9242 6.84375 13.1098 6.60227 12.125 6.60227H8.77273V12.1705ZM35.4915 0.40909V29.5H27.5938V0.40909H35.4915ZM50.4276 29.5H39.2344V0.40909H50.3139C53.3063 0.40909 55.8916 0.991477 58.0696 2.15625C60.2571 3.31155 61.9427 4.97822 63.1264 7.15625C64.3196 9.32481 64.9162 11.9242 64.9162 14.9545C64.9162 17.9848 64.3243 20.589 63.1406 22.767C61.9569 24.9356 60.2808 26.6023 58.1122 27.767C55.9437 28.9223 53.3821 29.5 50.4276 29.5ZM47.1321 22.7955H50.1435C51.5829 22.7955 52.8092 22.5634 53.8224 22.0994C54.8452 21.6354 55.6217 20.8352 56.152 19.6989C56.6918 18.5625 56.9616 16.9811 56.9616 14.9545C56.9616 12.928 56.687 11.3466 56.1378 10.2102C55.598 9.07386 54.8026 8.27367 53.7514 7.80966C52.7098 7.34564 51.4313 7.11364 49.9162 7.11364H47.1321V22.7955ZM68.6839 29.5V25.125L82.4339 6.77273H68.7408V0.40909H92.4908V4.78409L78.7408 23.1364H92.4339V29.5H68.6839Z" fill="#F9FAFB"/>
</svg>
