<svg width="93" height="30" viewBox="0 0 93 30" fill="none" xmlns="http://www.w3.org/2000/svg">
<path d="M0.875 30V0.90909H13.4886C15.7045 0.90909 17.5653 1.20739 19.071 1.80398C20.5862 2.40057 21.7273 3.24337 22.4943 4.33239C23.2708 5.4214 23.6591 6.70454 23.6591 8.18182C23.6591 9.25189 23.4223 10.2273 22.9489 11.108C22.4848 11.9886 21.8314 12.7273 20.9886 13.3239C20.1458 13.911 19.161 14.3182 18.0341 14.5455V14.8295C19.2841 14.8769 20.4205 15.1941 21.4432 15.7812C22.4659 16.3589 23.2803 17.1591 23.8864 18.1818C24.4924 19.1951 24.7955 20.3883 24.7955 21.7614C24.7955 23.3523 24.3788 24.768 23.5455 26.0085C22.7216 27.2491 21.5473 28.2244 20.0227 28.9347C18.4981 29.6449 16.6799 30 14.5682 30H0.875ZM8.77273 23.6932H12.4659C13.7917 23.6932 14.786 23.447 15.4489 22.9545C16.1117 22.4527 16.4432 21.714 16.4432 20.7386C16.4432 20.0568 16.2869 19.4792 15.9744 19.0057C15.6619 18.5322 15.2169 18.1723 14.6392 17.9261C14.071 17.6799 13.3845 17.5568 12.5795 17.5568H8.77273V23.6932ZM8.77273 12.6705H12.0114C12.7027 12.6705 13.3134 12.5616 13.8438 12.3438C14.3741 12.1259 14.786 11.8134 15.0795 11.4062C15.3826 10.9896 15.5341 10.483 15.5341 9.88636C15.5341 8.98674 15.2121 8.30019 14.5682 7.8267C13.9242 7.34375 13.1098 7.10227 12.125 7.10227H8.77273V12.6705ZM35.4915 0.90909V30H27.5938V0.90909H35.4915ZM50.4276 30H39.2344V0.90909H50.3139C53.3063 0.90909 55.8916 1.49148 58.0696 2.65625C60.2571 3.81155 61.9427 5.47822 63.1264 7.65625C64.3196 9.82481 64.9162 12.4242 64.9162 15.4545C64.9162 18.4848 64.3243 21.089 63.1406 23.267C61.9569 25.4356 60.2808 27.1023 58.1122 28.267C55.9437 29.4223 53.3821 30 50.4276 30ZM47.1321 23.2955H50.1435C51.5829 23.2955 52.8092 23.0634 53.8224 22.5994C54.8452 22.1354 55.6217 21.3352 56.152 20.1989C56.6918 19.0625 56.9616 17.4811 56.9616 15.4545C56.9616 13.428 56.687 11.8466 56.1378 10.7102C55.598 9.57386 54.8026 8.77367 53.7514 8.30966C52.7098 7.84564 51.4313 7.61364 49.9162 7.61364H47.1321V23.2955ZM68.6839 30V25.625L82.4339 7.27273H68.7408V0.90909H92.4908V5.28409L78.7408 23.6364H92.4339V30H68.6839Z" fill="#1D4ED8"/>
</svg>
